<?xml version="1.0" encoding="utf-8"?>
<!-- Generator: Adobe Illustrator 26.3.1, SVG Export Plug-In . SVG Version: 6.00 Build 0)  -->
<svg version="1.1" id="Layer_1" xmlns="http://www.w3.org/2000/svg" xmlns:xlink="http://www.w3.org/1999/xlink" x="0px" y="0px"
	 viewBox="0 0 347.5 328.25" style="enable-background:new 0 0 347.5 328.25;" xml:space="preserve">
<style type="text/css">
	.st0{fill:#9B5644;}
	.st1{fill:none;stroke:#FFFFFF;stroke-width:0.5;stroke-miterlimit:10;}
	.st2{opacity:0.15;}
	.st3{fill:#FFFFFF;}
	.st4{fill:#2B3A49;}
	.st5{fill:#141515;}
	.st6{fill:#D8D8DA;}
	.st7{fill:#F6F8F5;}
	.st8{fill:none;stroke:#D9D4C5;stroke-width:0.5;stroke-miterlimit:10;}
</style>
<ellipse class="st0" cx="177.56" cy="165.59" rx="162.47" ry="162.66"/>
<ellipse class="st1" cx="187.88" cy="167.13" rx="159.37" ry="159.56"/>
<g>
	<path class="st0" d="M339.85,172.71l-68.7-68.78l-109.53,8.48l-2.71,45.16l-12.63,4.5l-37.17-19.13l-26.12,41.68l22.17,22.2
		l0.28,14.98L208.3,324.77C280.89,310.85,336.32,248.57,339.85,172.71z"/>
	<path class="st2" d="M339.85,172.71l-68.7-68.78l-109.53,8.48l-2.71,45.16l-12.63,4.5l-37.17-19.13l-25.12,35.33l21.17,24.31
		l0.28,19.22L208.3,324.77C280.89,310.85,336.32,248.57,339.85,172.71z"/>
</g>
<g>
	<rect x="155.77" y="108.87" class="st3" width="111" height="53.96"/>
	<g>
		<path class="st4" d="M153.63,205.84v0.94h30.51v-0.94c0-2.75-2.26-5.03-4.98-5.03h-20.61
			C155.83,200.8,153.63,203.08,153.63,205.84z"/>
		<path class="st4" d="M195.78,205.84v0.94h30.51v-0.94c0-2.75-2.2-5.03-4.98-5.03H200.7C197.98,200.8,195.78,203.08,195.78,205.84z
			"/>
		<path class="st4" d="M237.92,205.84v0.94h30.51v-0.94c0-2.75-2.2-5.03-4.98-5.03H242.9C240.12,200.8,237.92,203.08,237.92,205.84z
			"/>
		<path class="st5" d="M156.24,152.92v-42.44h109.59v51.75H159.94c-0.87,1.64-2.43,2.87-4.34,3.28l-3.24,0.7
			c0.93,0.76,2.08,1.23,3.36,1.23h110.63c2.72,0,4.98-2.11,4.98-4.74v-52.69c0-2.63-2.26-4.74-4.98-4.74H155.72
			c-2.72,0-4.98,2.11-4.98,4.74v43.2l2.2-0.47C154.1,152.51,155.2,152.56,156.24,152.92z"/>
		<path class="st6" d="M253.15,199.92c6.25,0,11.29-5.15,11.29-11.42c0-6.32-5.04-11.42-11.29-11.42c-6.19,0-11.23,5.09-11.23,11.42
			C241.92,194.77,246.96,199.92,253.15,199.92z"/>
		<path class="st6" d="M211,199.92c6.25,0,11.29-5.15,11.29-11.42c0-6.32-5.04-11.42-11.29-11.42c-6.19,0-11.23,5.09-11.23,11.42
			C199.77,194.77,204.81,199.92,211,199.92z"/>
		<path class="st5" d="M226.64,208.53h-31.2c-2.08,0-3.76,1.76-3.76,3.86v13.52h38.73v-13.52
			C230.4,210.28,228.66,208.53,226.64,208.53z"/>
		<path class="st7" d="M168.86,199.92c6.25,0,11.29-5.15,11.29-11.42c0-6.32-5.04-11.42-11.29-11.42c-6.19,0-11.23,5.09-11.23,11.42
			C157.63,194.77,162.67,199.92,168.86,199.92z"/>
		<path class="st5" d="M268.78,208.53h-31.2c-2.08,0-3.76,1.76-3.76,3.86v13.52h38.73v-13.52
			C272.54,210.28,270.87,208.53,268.78,208.53z"/>
		<path class="st5" d="M184.49,208.53h-31.2c-2.08,0-3.76,1.76-3.76,3.86v13.52h38.73v-13.52
			C188.25,210.28,186.52,208.53,184.49,208.53z"/>
		<path class="st6" d="M158.9,158.13c-0.52-2.58-3.07-4.21-5.62-3.69l-9.96,2.22l-11.98-17.62c-0.52-1.93-2.32-3.45-4.4-3.45h-8.92
			c7-0.29,12.56-6.09,12.56-13.23c0-7.26-5.85-13.23-13.08-13.23c-7.24,0-13.08,5.97-13.08,13.23c0,7.14,5.56,12.94,12.5,13.23
			h-9.78c-0.35,0-0.69,0.06-1.04,0.18c-1.97-0.29-3.99,0.7-4.92,2.63l-18.12,38.11c-1.16,2.4-0.17,5.21,2.2,6.38
			c2.32,1.11,5.15,0.12,6.31-2.22l11.06-23.3v17.5v4.98v40.1c0,3.28,2.66,5.97,5.96,5.97c3.24,0,5.9-2.69,5.9-5.97v-35.53h5.15
			v35.53c0,3.28,2.66,5.97,5.9,5.97c3.24,0,5.9-2.69,5.9-5.97v-40.1v-4.98v-18.79l5.91,8.61c1.1,1.64,3.01,2.34,4.86,1.99
			l12.97-2.87C157.8,163.28,159.42,160.7,158.9,158.13z"/>
		<path class="st4" d="M216.45,129.32c0.64-0.29,0.87-1.05,0.58-1.7l-0.06-0.12c-0.29-0.59-1.04-0.88-1.68-0.59l-56.62,27.4
			c0.69,0.53,1.27,1.29,1.56,2.17L216.45,129.32z"/>
	</g>
</g>
<ellipse class="st8" cx="159.62" cy="159.81" rx="159.37" ry="159.56"/>
</svg>
